<?xml version="1.0" standalone="no"?>
<!DOCTYPE svg PUBLIC "-//W3C//DTD SVG 20010904//EN"
 "http://www.w3.org/TR/2001/REC-SVG-20010904/DTD/svg10.dtd">
<svg version="1.0" xmlns="http://www.w3.org/2000/svg"
 width="533.000000pt" height="200.000000pt" viewBox="0 0 533.000000 200.000000"
 preserveAspectRatio="xMidYMid meet">

<g transform="translate(0.000000,200.000000) scale(0.100000,-0.100000)"
fill="beige" stroke="none">
<path d="M1474 1584 c43 -38 96 -104 96 -120 0 -11 -12 -8 -50 11 -71 36 -161
55 -265 55 -184 0 -342 -64 -465 -189 -121 -122 -169 -238 -176 -423 -1 -54
-8 -106 -13 -117 -26 -48 -2 -104 48 -114 l29 -6 3 -108 c5 -118 19 -157 72
-197 26 -19 44 -21 197 -24 150 -3 173 -2 213 16 55 24 83 77 93 175 l7 67 43
0 43 0 6 -47 c3 -27 9 -65 12 -86 7 -49 54 -103 102 -118 22 -7 99 -10 198 -7
144 3 165 5 189 24 61 45 69 66 72 189 l4 114 29 6 c40 9 59 31 59 66 0 44
-17 69 -45 69 -24 0 -25 3 -25 60 0 145 -78 367 -138 392 l-27 12 28 4 c15 2
49 -1 75 -7 26 -5 49 -8 51 -6 10 10 -82 115 -105 121 -26 7 -91 1 -132 -12
-22 -6 -22 -5 -16 50 8 66 1 77 -70 113 -47 24 -151 63 -165 63 -3 0 7 -12 23
-26z m-384 -430 c18 -30 57 -82 87 -114 84 -91 210 -154 254 -127 28 17 24 23
-27 41 -53 18 -108 57 -125 88 -13 24 -4 20 51 -23 19 -15 61 -35 94 -44 l58
-17 31 30 30 30 -42 13 c-45 13 -101 58 -101 80 0 8 9 4 23 -9 27 -25 88 -52
119 -52 12 0 32 9 44 20 l21 21 23 -58 c23 -59 68 -128 77 -120 2 3 -3 16 -11
29 -24 37 -41 131 -27 154 9 16 10 11 11 -26 0 -49 27 -117 53 -139 21 -17 21
-13 2 32 -8 20 -15 53 -14 74 0 36 1 35 18 -22 9 -33 23 -71 31 -85 7 -13 14
-41 16 -62 l3 -38 -172 0 c-188 0 -237 -8 -260 -44 -21 -31 -71 -30 -96 3 -25
33 -77 40 -295 41 -175 0 -188 1 -181 18 3 9 11 38 17 65 10 40 21 55 67 93
52 42 171 179 171 196 0 23 22 2 50 -48z m59 -440 c18 -23 21 -41 21 -116 0
-100 -15 -143 -56 -158 -35 -14 -254 -13 -293 1 -17 6 -36 19 -41 29 -6 10
-10 68 -10 129 0 146 -7 141 201 141 l158 0 20 -26z m669 10 c21 -14 22 -23
22 -127 -1 -162 1 -161 -175 -165 -206 -5 -225 9 -225 168 0 83 2 93 25 115
23 24 28 25 177 25 123 0 158 -3 176 -16z"/>
<path d="M968 914 c-31 -16 -40 -51 -10 -39 60 25 70 26 113 11 54 -19 63 -12
26 20 -33 28 -87 31 -129 8z"/>
<path d="M1525 906 c-39 -32 -30 -38 26 -20 40 13 51 13 87 1 34 -12 42 -12
42 -1 0 22 -42 44 -85 44 -27 0 -50 -8 -70 -24z"/>
<path d="M970 661 c31 -8 36 -54 7 -59 -26 -5 -48 17 -42 42 5 18 3 17 -19 -7
-34 -37 -33 -72 3 -108 37 -36 79 -38 117 -5 59 50 19 147 -59 145 -30 -1 -30
-1 -7 -8z"/>
<path d="M1570 660 c-12 -8 -11 -10 7 -10 27 0 36 -14 28 -40 -8 -25 -50 -27
-64 -2 -9 14 -10 11 -11 -18 0 -68 62 -114 120 -90 64 26 80 97 34 144 -28 27
-84 35 -114 16z"/>
<path d="M2130 1200 l0 -110 104 0 c111 0 134 -9 121 -49 -8 -26 -35 -33 -106
-29 -47 3 -54 6 -57 26 -3 17 -10 22 -33 22 -29 0 -29 0 -29 -60 l0 -60 95 0
c105 0 152 14 179 51 20 29 20 97 0 124 -10 14 -13 31 -9 56 4 23 1 50 -9 73
-21 50 -62 66 -171 66 l-85 0 0 -110z m190 26 c6 -8 10 -25 8 -38 -3 -21 -9
-23 -70 -26 l-68 -3 0 34 c0 18 3 37 7 40 13 14 110 7 123 -7z"/>
<path d="M2633 1290 c-17 -10 -37 -28 -42 -39 -6 -11 -11 -82 -11 -166 l0
-146 33 3 32 3 3 140 c2 96 6 142 15 147 18 11 105 10 128 -2 12 -7 19 -21 19
-40 l0 -30 -65 0 -65 0 0 -35 0 -35 65 0 64 0 3 -72 3 -73 30 0 30 0 3 132 c3
158 -8 196 -62 218 -51 22 -144 19 -183 -5z"/>
<path d="M3030 1200 l0 -110 35 0 35 0 0 75 0 75 68 0 c40 0 73 -5 80 -12 16
-16 16 -190 0 -206 -7 -7 -40 -12 -80 -12 -66 0 -68 1 -68 25 0 22 -4 25 -35
25 l-36 0 3 -57 3 -58 112 0 113 0 32 32 c31 32 32 36 36 131 7 173 -21 202
-198 202 l-100 0 0 -110z"/>
<path d="M3484 1297 c-3 -8 -3 -56 -2 -108 l3 -94 32 -3 32 -3 3 73 3 73 54 3
c102 6 101 7 101 -112 0 -120 3 -116 -96 -116 -62 0 -64 1 -64 25 0 22 -4 25
-35 25 l-36 0 3 -57 3 -58 90 -3 c176 -6 205 20 205 188 0 119 -9 142 -66 166
-45 19 -223 19 -230 1z"/>
<path d="M3940 1200 l0 -111 128 3 127 3 3 32 3 32 -98 3 -98 3 0 35 0 35 113
3 112 3 0 34 0 35 -145 0 -145 0 0 -110z"/>
<path d="M4390 1200 l0 -111 128 3 127 3 3 33 3 32 -101 0 -101 0 3 38 3 37
112 3 c98 2 113 5 118 21 3 10 3 26 -1 35 -5 14 -26 16 -150 16 l-144 0 0
-110z"/>
<path d="M4840 1200 l0 -110 105 0 c116 0 151 11 175 54 17 33 17 79 0 111
-22 41 -67 55 -179 55 l-101 0 0 -110z m211 30 c21 -12 25 -40 7 -58 -7 -7
-40 -12 -80 -12 l-68 0 0 33 c0 19 3 37 7 40 10 11 112 8 134 -3z"/>
<path d="M3940 1037 c0 -12 7 -33 16 -46 27 -37 74 -51 179 -51 l95 0 0 35 0
35 -99 0 c-77 0 -103 4 -115 16 -9 8 -16 20 -16 25 0 5 -13 9 -30 9 -25 0 -30
-4 -30 -23z"/>
<path d="M4390 1037 c0 -12 7 -33 16 -45 28 -41 66 -52 174 -52 l100 0 0 35 0
35 -99 0 c-77 0 -103 4 -115 16 -9 8 -16 20 -16 25 0 5 -13 9 -30 9 -25 0 -30
-4 -30 -23z"/>
<path d="M4840 1000 l0 -61 33 3 c32 3 32 3 32 58 0 55 0 55 -32 58 l-33 3 0
-61z"/>
<path d="M2050 849 c0 -6 53 -61 117 -123 l116 -112 -125 -114 c-69 -63 -124
-118 -121 -123 2 -4 13 -1 24 7 37 25 237 211 243 225 4 9 -35 54 -116 132
-68 65 -126 118 -130 119 -5 0 -8 -5 -8 -11z"/>
<path d="M427 727 c-65 -61 -118 -117 -117 -123 0 -16 263 -259 267 -247 4 10
-193 209 -223 226 -8 4 -14 14 -14 21 0 8 48 58 108 112 98 89 127 124 105
124 -4 0 -61 -51 -126 -113z"/>
</g>
</svg>
