<?xml version="1.0" standalone="no"?>
<!DOCTYPE svg PUBLIC "-//W3C//DTD SVG 20010904//EN"
 "http://www.w3.org/TR/2001/REC-SVG-20010904/DTD/svg10.dtd">
<svg version="1.0" xmlns="http://www.w3.org/2000/svg"
 width="218.000000pt" height="141.000000pt" viewBox="0 0 218.000000 141.000000"
 preserveAspectRatio="xMidYMid meet">

<g transform="translate(0.000000,141.000000) scale(0.100000,-0.100000)"
fill="#000000" stroke="none">
<path d="M1299 1347 c92 -93 93 -114 4 -74 -78 34 -147 47 -251 47 -181 0
-340 -65 -462 -189 -121 -121 -168 -236 -176 -421 -2 -52 -9 -114 -16 -137
-10 -35 -9 -45 5 -66 8 -13 29 -27 45 -30 l30 -6 3 -108 c5 -118 19 -157 72
-197 26 -19 44 -21 205 -24 158 -2 181 -1 212 16 50 27 80 86 87 172 5 63 8
71 29 76 44 11 62 -3 69 -54 15 -129 45 -182 115 -203 20 -6 102 -9 197 -7
145 3 164 5 189 24 61 45 69 66 72 189 l4 113 28 5 c39 8 60 33 60 71 0 38
-17 63 -45 68 -18 3 -21 14 -27 89 -3 48 -13 114 -22 149 -22 84 -82 197 -115
215 l-26 14 35 1 c19 0 52 -5 73 -11 22 -6 41 -8 44 -5 9 9 -68 106 -96 120
-26 14 -58 12 -133 -9 l-27 -7 6 56 c5 44 2 60 -11 75 -18 20 -155 85 -201 96
-29 6 -28 4 24 -48z m-408 -403 c89 -156 282 -287 347 -236 l23 18 -55 17
c-32 11 -71 32 -92 53 -47 44 -38 56 13 16 21 -17 64 -38 96 -48 l57 -18 30
29 c33 32 31 37 -22 54 -37 12 -88 55 -88 74 0 6 10 1 23 -11 27 -25 88 -52
119 -52 12 0 32 10 45 21 l22 22 11 -29 c28 -76 35 -91 58 -122 27 -37 42 -37
18 0 -23 35 -37 113 -27 140 9 20 10 18 11 -17 1 -45 28 -113 53 -134 20 -16
20 -16 2 34 -8 22 -14 54 -14 70 0 24 4 19 18 -25 9 -30 23 -66 31 -80 7 -13
14 -41 16 -62 l3 -38 -172 0 c-190 0 -237 -8 -261 -45 -22 -34 -68 -34 -93 1
-27 36 -73 43 -289 44 l-192 0 17 65 c15 60 20 68 77 114 54 44 148 153 161
189 9 22 21 13 54 -44z m59 -441 c20 -25 21 -38 18 -130 -4 -143 -8 -147 -170
-151 -218 -6 -228 1 -228 164 0 149 -7 144 201 144 l158 0 21 -27z m668 11
c21 -14 22 -23 22 -127 -1 -162 1 -161 -175 -165 -206 -5 -225 9 -225 168 0
83 2 93 25 115 23 24 28 25 177 25 123 0 158 -3 176 -16z"/>
<path d="M768 704 c-31 -16 -40 -51 -10 -39 53 22 76 24 115 10 52 -18 60 -10
24 21 -33 28 -87 31 -129 8z"/>
<path d="M1325 696 c-39 -31 -30 -39 23 -21 41 14 97 11 108 -6 8 -14 24 -10
24 5 0 47 -105 62 -155 22z"/>
<path d="M783 449 c22 -13 22 -48 1 -56 -24 -9 -49 11 -47 38 3 24 2 24 -22
-4 -33 -37 -32 -72 4 -108 53 -52 133 -26 147 48 5 27 1 37 -24 63 -17 16 -41
30 -54 30 -20 -1 -21 -2 -5 -11z"/>
<path d="M1385 457 l-30 -11 25 -6 c18 -4 25 -13 25 -30 0 -32 -42 -41 -62
-14 -12 16 -13 14 -13 -17 0 -43 20 -72 60 -89 86 -36 162 82 94 145 -15 14
-30 25 -35 25 -4 0 -13 2 -21 4 -7 3 -26 -1 -43 -7z"/>
<path d="M1850 639 c0 -6 52 -61 116 -123 l117 -111 -119 -110 c-107 -98 -139
-135 -119 -135 11 0 252 223 260 240 4 10 -31 50 -117 132 -68 64 -126 117
-130 118 -5 0 -8 -5 -8 -11z"/>
<path d="M227 517 c-65 -62 -118 -117 -117 -123 0 -16 248 -246 261 -242 10 3
-186 204 -216 221 -8 4 -15 13 -15 20 0 7 48 57 108 111 98 91 127 127 105
126 -4 -1 -61 -51 -126 -113z"/>
</g>
</svg>
